<?xml version="1.0" encoding="utf-8"?>
<svg version="1.1" xmlns="http://www.w3.org/2000/svg" xmlns:xlink="http://www.w3.org/1999/xlink" x="0px" y="0px" viewBox="0 0 60 60" enable-background="new 0 0 60 60" xml:space="preserve">
<g><g><path fill="#000000" d="M215.2,122.6c0-4.5-3.6-8.1-8.1-8.1c-4.5,0-8.1,3.7-8.1,8.1c0,1.2,0.2,2.3,0.7,3.3c0.5,3.1,1.2,8.5,1.2,16.6c0,50.3-36.9,87.2-87.3,87.2c-50.4,0-87.3-36.9-87.3-87.2c0-50.3,36.9-87.2,87.3-87.2c8,0,9.2-0.4,16.2,1.1l0-0.2c0.2,0,0.5,0.1,0.7,0.1c4.3,0,7.8-3.5,7.8-7.8c0-3.7-2.6-6.8-6-7.6l0.1-0.5c-8.8-1.6-9.2-1.5-18.7-1.5C56.4,38.9,10,85.3,10,142.5C10,199.7,56.4,246,113.6,246c57.2,0,103.6-46.4,103.6-103.6c0-9-0.7-13.2-2-19.6C215.2,122.8,215.2,122.7,215.2,122.6z M90.8,215.2c0.1,0,0.2,0,0.2,0.1c0.3,0.1,0.9,0.2,0.9,0.2c0.4,0.1,0.7,0.2,1.2,0.2c3.2,0,5.2-2.7,5.7-5.8c0.5-3.3-3.1-5.3-3.1-5.3c-12-3.7-22.7-10.4-31.4-19.2c0,0-3.1-2.9-5.3-2.9c-3.2,0-5.7,2.6-5.7,5.8c0,1.9,0.9,3.4,2.3,4.5l0,0C65.2,203,77.2,210.7,90.8,215.2z M112.5,109.2c0.3,0,0.6,0.1,0.9,0.1c4.5,0,8.1-3.6,8.1-8.1c0-4.4-3.5-8-7.9-8.1c0-0.1,0-0.1,0-0.2c-27.5,0-49.7,22.3-49.7,49.7c0,27.5,22.3,49.7,49.7,49.7c27.3,0,49.5-22,49.7-49.2c0-0.3,0.1-0.5,0.1-0.8c0-4.5-3.7-8.1-8.1-8.1c-4.5,0-8.1,3.7-8.1,8.1c0,0.1,0,0.2,0,0.4c0,0-0.1,0-0.1,0c0,20.6-12.8,33.4-33.4,33.4c-20.6,0-33.4-12.8-33.4-33.4C80.2,122.3,92.6,109.7,112.5,109.2z M246,59.6l-45.7-3.9L196.4,10l-16.3,16.5v0l-33,29.2H147v40.7l-45.6,41.7l8.7,12.6l49.5-45.6h40.7v0l0,0l33.1-33.1l0,0h0L246,59.6z M191.7,92.8h-28.4V64.4L184,43.7v28.4h28.4L191.7,92.8z M50,166.8c-1-1.1-2.5-1.8-4.1-1.8c-3.2,0-5.7,2.6-5.7,5.8c0,1.8,2.8,5.8,3.3,6.5c0,0.1,0.2,0.2,0.2,0.4c0.5,0.8,2,2.2,2,2.2c0.9,0.6,1.9,1,3,1c3.2,0,5.7-2.6,5.7-5.8c0-0.6-0.2-1.2-0.4-1.8L50,166.8z"/></g></g>
</svg>